<svg width="34" height="34" viewBox="0 0 34 34" fill="none" xmlns="http://www.w3.org/2000/svg">
<path d="M17.0364 0.5H16.9636C7.87099 0.5 0.5 7.87099 0.5 16.9636V17.0364C0.5 26.129 7.87099 33.5 16.9636 33.5H17.0364C26.129 33.5 33.5 26.129 33.5 17.0364V16.9636C33.5 7.87099 26.129 0.5 17.0364 0.5Z" fill="#00E510" stroke="#007208"/>
<path d="M20.1181 21.681C16.0227 21.681 12.6908 18.3479 12.6896 14.2525C12.6908 13.2143 13.5361 12.3701 14.572 12.3701C14.6785 12.3701 14.7839 12.3791 14.8848 12.397C15.1068 12.434 15.3175 12.5091 15.5115 12.6224C15.5395 12.6392 15.5586 12.6661 15.5631 12.6975L15.9958 15.4252C16.0014 15.4577 15.9913 15.4891 15.97 15.5126C15.7312 15.7772 15.4263 15.9678 15.0866 16.0631L14.9229 16.109L14.9846 16.2671C15.5429 17.6887 16.6797 18.8244 18.1024 19.3849L18.2605 19.4477L18.3064 19.284C18.4017 18.9443 18.5923 18.6394 18.8569 18.4006C18.876 18.3827 18.9017 18.3737 18.9275 18.3737C18.9331 18.3737 18.9387 18.3737 18.9455 18.3748L21.6731 18.8076C21.7056 18.8132 21.7326 18.8311 21.7494 18.8591C21.8615 19.0531 21.9366 19.265 21.9747 19.487C21.9927 19.5856 22.0005 19.6899 22.0005 19.7986C22.0005 20.8357 21.1563 21.6799 20.1181 21.681Z" fill="#FDFDFD"/>
<path d="M27.3808 16.1019C27.1599 13.6063 26.0164 11.2912 24.161 9.58369C22.2943 7.86614 19.8727 6.91992 17.3401 6.91992C11.7816 6.91992 7.25903 11.4425 7.25903 17.001C7.25903 18.8665 7.77361 20.6839 8.74786 22.2669L6.57513 27.0765L13.5317 26.3354C14.7413 26.8309 16.0217 27.0821 17.339 27.0821C17.6854 27.0821 18.0408 27.0641 18.3973 27.0271C18.7112 26.9935 19.0285 26.9442 19.3402 26.8814C23.995 25.9408 27.3931 21.8095 27.42 17.0548V17.001C27.42 16.6983 27.4066 16.3956 27.3797 16.1019H27.3808ZM13.7996 24.2243L9.95082 24.6347L11.1 22.0886L10.8701 21.7803C10.8533 21.7579 10.8365 21.7355 10.8174 21.7097C9.81965 20.3318 9.29272 18.704 9.29272 17.0021C9.29272 12.5647 12.9027 8.95475 17.3401 8.95475C21.4972 8.95475 25.0209 12.1981 25.3605 16.3384C25.3785 16.5604 25.3886 16.7835 25.3886 17.0032C25.3886 17.066 25.3875 17.1277 25.3863 17.1938C25.3011 20.9058 22.708 24.0584 19.0801 24.8611C18.8031 24.9228 18.5195 24.9699 18.237 25.0002C17.9432 25.0338 17.6417 25.0506 17.3423 25.0506C16.2761 25.0506 15.2402 24.8443 14.2615 24.4362C14.1528 24.3925 14.0462 24.3454 13.9465 24.2972L13.8007 24.2266L13.7996 24.2243Z" fill="#FDFDFD"/>
</svg>
